name C:\Users\antoi\Documents\MyRepositories\upper-imu-dc\Results\main_tracking\Case_91\kinematics.mot
datacolumns 43
datarows 4
range 4.50000000 4.56000000
endheader 
time	clav_prot	clav_elev	scapula_abduction	scapula_elevation	scapula_upward_rot	scapula_winging	plane_elv	shoulder_elv	axial_rot	TrapeziusScapula_M/activation	TrapeziusScapula_S/activation	TrapeziusScapula_I/activation	TrapeziusClavicle_S/activation	SerratusAnterior_I/activation	SerratusAnterior_M/activation	SerratusAnterior_S/activation	Rhomboideus_S/activation	Rhomboideus_I/activation	LevatorScapulae/activation	Coracobrachialis/activation	DeltoideusClavicle_A/activation	DeltoideusScapula_P/activation	DeltoideusScapula_M/activation	LatissimusDorsi_S/activation	LatissimusDorsi_M/activation	LatissimusDorsi_I/activation	PectoralisMajorClavicle_S/activation	PectoralisMajorThorax_I/activation	PectoralisMajorThorax_M/activation	TeresMajor/activation	Infraspinatus_I/activation	Infraspinatus_S/activation	PectoralisMinor/activation	TeresMinor/activation	Subscapularis_S/activation	Subscapularis_M/activation	Subscapularis_I/activation	Supraspinatus_P/activation	Supraspinatus_A/activation	TRIlong/activation	BIC_long/activation	BIC_brevis/activation	
          4.50000000	        -34.77966821	         -0.31636822	        -19.03486682	         -6.63139873	         35.35388320	         -2.98684339	          0.82954988	         64.06056015	          6.43686863	          0.03242982	          0.09503149	          0.02496855	          0.01995532	          0.08629240	          0.06798477	          0.01000001	          0.01000001	          0.01000000	          0.01000000	          0.01000000	          0.03613218	          0.01622429	          0.15992981	          0.01000000	          0.01000000	          0.01000000	          0.01000001	          0.01000000	          0.01000000	          0.01000000	          0.04769080	          0.04940217	          0.01000000	          0.01132357	          0.01000000	          0.01000000	          0.01000000	          0.01333555	          0.01000006	          0.01000000	          0.01826364	          0.01000001	
          4.52000000	        -34.83502072	         -0.23429369	        -18.82063516	         -6.64356926	         35.79381184	         -3.11983612	          0.92666617	         64.67036436	          6.56591772	          0.03263847	          0.09569248	          0.02509889	          0.02019467	          0.08732029	          0.07000530	          0.01000001	          0.01000001	          0.01000000	          0.01000000	          0.01000000	          0.03740066	          0.01601789	          0.16102291	          0.01000000	          0.01000000	          0.01000000	          0.01000001	          0.01000000	          0.01000000	          0.01000000	          0.04795396	          0.04960885	          0.01000000	          0.01135252	          0.01000000	          0.01000000	          0.01000000	          0.01346973	          0.01000014	          0.01000000	          0.01837821	          0.01000001	
          4.54000000	        -34.89738964	         -0.15521820	        -18.60753948	         -6.65909550	         36.24502605	         -3.25509625	          1.02972896	         65.26982174	          6.66258250	          0.03285946	          0.09629979	          0.02525381	          0.02041294	          0.08830498	          0.07198301	          0.01000001	          0.01000001	          0.01000000	          0.01000000	          0.01000000	          0.03870754	          0.01563562	          0.16184097	          0.01000000	          0.01000000	          0.01000000	          0.01000001	          0.01000000	          0.01000000	          0.01000000	          0.04822076	          0.04978402	          0.01000000	          0.01138052	          0.01000000	          0.01000000	          0.01000000	          0.01362731	          0.01000011	          0.01000000	          0.01855563	          0.01000001	
          4.56000000	        -34.96641612	         -0.07836989	        -18.39643165	         -6.67705854	         36.70584584	         -3.39245884	          1.13944489	         65.85745771	          6.73019891	          0.03308653	          0.09689595	          0.02538964	          0.02062440	          0.08924141	          0.07394524	          0.01000001	          0.01000001	          0.01000000	          0.01000000	          0.01000000	          0.04008323	          0.01506180	          0.16250888	          0.01000000	          0.01000000	          0.01000000	          0.01000001	          0.01000000	          0.01000000	          0.01000000	          0.04846562	          0.04992433	          0.01000000	          0.01138731	          0.01000000	          0.01000000	          0.01000000	          0.01381470	          0.01000008	          0.01000000	          0.01880670	          0.01000001	
